<?xml version="1.0" encoding="UTF-8" ?>
 <svg viewBox="0 -47.48331992176747  100.2063390806125 47.48331992176747" xmlns="http://www.w3.org/2000/svg" version="1.0" overflow="visible">
  <defs>
   <g id="ID__#42_D9">
    <line x1="55.19200277040061" y1="14.93434824844368" x2="55.19200277040061" y2="8.684348248443682" id="ID_4A0"/>
    <line x1="59.89748130352808" y1="14.93434824844368" x2="59.89748130352808" y2="8.684348248443682" id="ID_4A1"/>
    <line x1="52.19200277040061" y1="9.934348248443683" x2="49.19200277040062" y2="9.934348248443683" id="ID_4A2"/>
    <line x1="62.89748130352807" y1="9.934348248443683" x2="65.89748130352808" y2="9.934348248443683" id="ID_4A3"/>
    <line x1="55.19200277040061" y1="9.934348248443683" x2="59.89748130352808" y2="9.934348248443683" id="ID_4A4"/>
    <polygon points="52.19200277040061,10.43434824844368 52.19200277040061,9.434348248443683 55.19200277040061,9.934348248443683 55.19200277040061,9.934348248443683 " id="ID_4A5" fill="currentColor"/>
    <polygon points="62.89748130352807,10.43434824844368 62.89748130352807,9.434348248443683 59.89748130352808,9.934348248443683 59.89748130352808,9.934348248443683 " id="ID_4A6" fill="currentColor"/>
    <text writing-mode="lr-tb" text-anchor="middle" alignment-baseline="middle" x="57.54474203696434" y="11.82981209564696" font-size="2.5" transform="matrix(1 0 0 -1 0 23.65962419129392)" fill="currentColor" id="ID_4A7">
     <tspan baseline-shift="-40%" font-style="italic" font-family="Arial" font-size="2.5"/>
     <tspan baseline-shift="-40%" font-style="italic" font-family="Arial" font-size="2.5">d</tspan>
    </text>
   </g>
   <g id="ID__#42_D8">
    <line x1="31.4635713571376" y1="14.93434824844368" x2="31.4635713571376" y2="8.684348248443682" id="ID_492"/>
    <line x1="36.16904989026507" y1="14.93434824844368" x2="36.16904989026507" y2="8.684348248443682" id="ID_493"/>
    <line x1="28.46357135713761" y1="9.934348248443683" x2="25.46357135713761" y2="9.934348248443683" id="ID_494"/>
    <line x1="39.16904989026507" y1="9.934348248443683" x2="42.16904989026504" y2="9.934348248443683" id="ID_495"/>
    <line x1="31.4635713571376" y1="9.934348248443683" x2="36.16904989026507" y2="9.934348248443683" id="ID_496"/>
    <polygon points="28.46357135713761,10.43434824844368 28.46357135713761,9.434348248443683 31.4635713571376,9.934348248443683 31.4635713571376,9.934348248443683 " id="ID_497" fill="currentColor"/>
    <polygon points="39.16904989026507,10.43434824844368 39.16904989026507,9.434348248443683 36.16904989026507,9.934348248443683 36.16904989026507,9.934348248443683 " id="ID_498" fill="currentColor"/>
    <text writing-mode="lr-tb" text-anchor="middle" alignment-baseline="middle" x="33.81631062370133" y="11.82981209564696" font-size="2.5" transform="matrix(1 0 0 -1 0 23.65962419129392)" fill="currentColor" id="ID_499">
     <tspan baseline-shift="-40%" font-style="italic" font-family="Arial" font-size="2.5"/>
     <tspan baseline-shift="-40%" font-style="italic" font-family="Arial" font-size="2.5">d</tspan>
    </text>
   </g>
   <g id="ID__#42_D30">
    <line x1="98.27996892307667" y1="12.77355609794583" x2="98.27996892307667" y2="6.523556097945828" id="ID_877"/>
    <line x1="68.8974813035281" y1="12.77355609794583" x2="68.8974813035281" y2="6.523556097945828" id="ID_878"/>
    <line x1="95.27996892307665" y1="7.773556097945828" x2="71.8974813035281" y2="7.773556097945828" id="ID_879"/>
    <polygon points="95.27996892307665,8.273556097945828 95.27996892307665,7.273556097945828 98.27996892307667,7.773556097945828 98.27996892307667,7.773556097945828 " id="ID_87A" fill="currentColor"/>
    <polygon points="71.8974813035281,8.273556097945828 71.8974813035281,7.273556097945828 68.8974813035281,7.773556097945828 68.8974813035281,7.773556097945828 " id="ID_87B" fill="currentColor"/>
    <text writing-mode="lr-tb" text-anchor="middle" alignment-baseline="middle" x="83.58872511330237" y="9.669019945149103" font-size="2.5" transform="matrix(1 0 0 -1 0 19.338039890298205)" fill="currentColor" id="ID_87C">
     <tspan baseline-shift="-40%" font-style="italic" font-family="Arial" font-size="2.5"/>
     <tspan baseline-shift="-40%" font-style="italic" font-family="Arial" font-size="2.5">d</tspan>
    </text>
   </g>
   <g id="ID__#42_D7">
    <line x1="77.83123242557815" y1="9.039821302545194" x2="77.83123242557815" y2="2.789821302545191" id="ID_60C"/>
    <line x1="102.8312324255781" y1="9.039821302545194" x2="102.8312324255781" y2="2.789821302545191" id="ID_60D"/>
    <line x1="80.83123242557816" y1="4.039821302545191" x2="99.83123242557816" y2="4.039821302545191" id="ID_60E"/>
    <polygon points="80.83123242557816,4.539821302545191 80.83123242557816,3.539821302545191 77.83123242557815,4.039821302545191 77.83123242557815,4.039821302545191 " id="ID_60F" fill="currentColor"/>
    <polygon points="99.83123242557816,4.539821302545191 99.83123242557816,3.539821302545191 102.8312324255781,4.039821302545191 102.8312324255781,4.039821302545191 " id="ID_610" fill="currentColor"/>
    <text writing-mode="lr-tb" text-anchor="middle" alignment-baseline="middle" x="90.33123242557815" y="5.935285149748466" font-size="2.5" transform="matrix(1 0 0 -1 0 11.870570299496933)" fill="currentColor" id="ID_611">
     <tspan baseline-shift="-40%" font-style="italic" font-family="Arial" font-size="2.5"/>
     <tspan baseline-shift="-40%" font-style="italic" font-family="Arial" font-size="2.5">d</tspan>
    </text>
   </g>
   <g id="ID__#42_D6">
    <line x1="125" y1="-3.291530435335062" x2="125" y2="-9.541530435335062" id="ID_35C"/>
    <line x1="150" y1="-3.291530435335062" x2="150" y2="-9.541530435335062" id="ID_35D"/>
    <line x1="128" y1="-8.291530435335062" x2="147" y2="-8.291530435335062" id="ID_35E"/>
    <polygon points="128.0,-7.791530435335062 128.0,-8.791530435335062 125.0,-8.291530435335062 125.0,-8.291530435335062 " id="ID_35F" fill="currentColor"/>
    <polygon points="147.0,-7.791530435335062 147.0,-8.791530435335062 150.0,-8.291530435335062 150.0,-8.291530435335062 " id="ID_360" fill="currentColor"/>
    <text writing-mode="lr-tb" text-anchor="middle" alignment-baseline="middle" x="137.5" y="-6.396066588131786" font-size="2.5" transform="matrix(1 0 0 -1 0 -12.792133176263572)" fill="currentColor" id="ID_361">
     <tspan baseline-shift="-40%" font-size="2.5">d</tspan>
    </text>
   </g>
   <g id="ID__#42_D5">
    <line x1="52.83123242557814" y1="9.039821302545194" x2="52.83123242557814" y2="2.789821302545191" id="ID_603"/>
    <line x1="77.83123242557815" y1="9.039821302545194" x2="77.83123242557815" y2="2.789821302545191" id="ID_604"/>
    <line x1="55.83123242557814" y1="4.039821302545191" x2="74.83123242557815" y2="4.039821302545191" id="ID_605"/>
    <polygon points="55.83123242557814,4.539821302545191 55.83123242557814,3.539821302545191 52.83123242557814,4.039821302545191 52.83123242557814,4.039821302545191 " id="ID_606" fill="currentColor"/>
    <polygon points="74.83123242557815,4.539821302545191 74.83123242557815,3.539821302545191 77.83123242557815,4.039821302545191 77.83123242557815,4.039821302545191 " id="ID_607" fill="currentColor"/>
    <text writing-mode="lr-tb" text-anchor="middle" alignment-baseline="middle" x="65.33123242557815" y="5.935285149748466" font-size="2.5" transform="matrix(1 0 0 -1 0 11.870570299496933)" fill="currentColor" id="ID_608">
     <tspan baseline-shift="-40%" font-style="italic" font-family="Arial" font-size="2.5"/>
     <tspan baseline-shift="-40%" font-style="italic" font-family="Arial" font-size="2.5">d</tspan>
    </text>
   </g>
   <g id="ID__#42_D4">
    <line x1="27.83123242557815" y1="9.039821302545194" x2="27.83123242557815" y2="2.789821302545191" id="ID_5F1"/>
    <line x1="52.83123242557814" y1="9.039821302545194" x2="52.83123242557814" y2="2.789821302545191" id="ID_5F2"/>
    <line x1="30.83123242557815" y1="4.039821302545191" x2="49.83123242557814" y2="4.039821302545191" id="ID_5F3"/>
    <polygon points="30.83123242557815,4.539821302545191 30.83123242557815,3.539821302545191 27.83123242557815,4.039821302545191 27.83123242557815,4.039821302545191 " id="ID_5F4" fill="currentColor"/>
    <polygon points="49.83123242557814,4.539821302545191 49.83123242557814,3.539821302545191 52.83123242557814,4.039821302545191 52.83123242557814,4.039821302545191 " id="ID_5F5" fill="currentColor"/>
    <text writing-mode="lr-tb" text-anchor="middle" alignment-baseline="middle" x="40.33123242557815" y="5.935285149748466" font-size="2.5" transform="matrix(1 0 0 -1 0 11.870570299496933)" fill="currentColor" id="ID_5F6">
     <tspan baseline-shift="-40%" font-style="italic" font-family="Arial" font-size="2.5"/>
     <tspan baseline-shift="-40%" font-style="italic" font-family="Arial" font-size="2.5">d</tspan>
    </text>
   </g>
   <g id="ID__#42_D3">
    <line x1="2.83123242557815" y1="9.039821302545194" x2="2.83123242557815" y2="2.789821302545191" id="ID_5FA"/>
    <line x1="27.83123242557815" y1="9.039821302545194" x2="27.83123242557815" y2="2.789821302545191" id="ID_5FB"/>
    <line x1="5.83123242557815" y1="4.039821302545191" x2="24.83123242557815" y2="4.039821302545191" id="ID_5FC"/>
    <polygon points="5.83123242557815,4.539821302545191 5.83123242557815,3.539821302545191 2.83123242557815,4.039821302545191 2.83123242557815,4.039821302545191 " id="ID_5FD" fill="currentColor"/>
    <polygon points="24.83123242557815,4.539821302545191 24.83123242557815,3.539821302545191 27.83123242557815,4.039821302545191 27.83123242557815,4.039821302545191 " id="ID_5FE" fill="currentColor"/>
    <text writing-mode="lr-tb" text-anchor="middle" alignment-baseline="middle" x="15.33123242557815" y="5.935285149748466" font-size="2.5" transform="matrix(1 0 0 -1 0 11.870570299496933)" fill="currentColor" id="ID_5FF">
     <tspan baseline-shift="-40%" font-style="italic" font-family="Arial" font-size="2.5"/>
     <tspan baseline-shift="-40%" font-style="italic" font-family="Arial" font-size="2.5">d</tspan>
    </text>
   </g>
   <g id="ID__#42_D2">
    <line x1="2.08108373758904" y1="31.38915477880142" x2="2.08108373758904" y2="37.63915477880142" id="ID_85C"/>
    <line x1="98.27996892307662" y1="31.38915477880142" x2="98.27996892307662" y2="37.63915477880142" id="ID_85D"/>
    <line x1="5.08108373758904" y1="36.38915477880142" x2="95.27996892307662" y2="36.38915477880142" id="ID_85E"/>
    <polygon points="5.08108373758904,36.88915477880142 5.08108373758904,35.88915477880142 2.08108373758904,36.38915477880142 2.08108373758904,36.38915477880142 " id="ID_85F" fill="currentColor"/>
    <polygon points="95.27996892307662,36.88915477880142 95.27996892307662,35.88915477880142 98.27996892307662,36.38915477880142 98.27996892307662,36.38915477880142 " id="ID_860" fill="currentColor"/>
    <text writing-mode="lr-tb" text-anchor="middle" alignment-baseline="middle" x="50.18052633033283" y="38.29058724810565" font-size="2.5" transform="matrix(1 0 0 -1 0 76.5811744962113)" fill="currentColor" id="ID_861">
     <tspan baseline-shift="-40%" font-style="italic" font-family="Arial" font-size="2.5"/>
     <tspan baseline-shift="-40%" font-style="italic" font-family="Arial" font-size="2.5">N x 170kN</tspan>
    </text>
   </g>
   <g id="ID__#42_D19">
    <line x1="55.19200277040061" y1="14.93434824844368" x2="55.19200277040061" y2="8.684348248443682" id="ID_697"/>
    <line x1="59.89748130352808" y1="14.93434824844368" x2="59.89748130352808" y2="8.684348248443682" id="ID_698"/>
    <line x1="52.19200277040061" y1="9.934348248443683" x2="49.19200277040062" y2="9.934348248443683" id="ID_699"/>
    <line x1="62.89748130352807" y1="9.934348248443683" x2="65.89748130352808" y2="9.934348248443683" id="ID_69A"/>
    <line x1="55.19200277040061" y1="9.934348248443683" x2="59.89748130352808" y2="9.934348248443683" id="ID_69B"/>
    <polygon points="52.19200277040061,10.43434824844368 52.19200277040061,9.434348248443683 55.19200277040061,9.934348248443683 55.19200277040061,9.934348248443683 " id="ID_69C" fill="currentColor"/>
    <polygon points="62.89748130352807,10.43434824844368 62.89748130352807,9.434348248443683 59.89748130352808,9.934348248443683 59.89748130352808,9.934348248443683 " id="ID_69D" fill="currentColor"/>
    <text writing-mode="lr-tb" text-anchor="middle" alignment-baseline="middle" x="57.54474203696434" y="11.82981209564696" font-size="2.5" transform="matrix(1 0 0 -1 0 23.65962419129392)" fill="currentColor" id="ID_69E">
     <tspan baseline-shift="-40%" font-style="italic" font-family="Arial" font-size="2.5"/>
     <tspan baseline-shift="-40%" font-style="italic" font-family="Arial" font-size="2.5">d</tspan>
    </text>
   </g>
   <g id="ID__#42_D1">
    <line x1="5" y1="41.08302713027249" x2="95" y2="41.08302713027249" id="ID_2B2"/>
    <polygon points="5.0,41.91636046360584 5.0,40.24969379693915 2.5E-15,41.08302713027249 2.5E-15,41.08302713027249 " id="ID_2B3" fill="currentColor"/>
    <polygon points="95.0,41.91636046360584 95.0,40.24969379693915 100.0,41.08302713027249 100.0,41.08302713027249 " id="ID_2B4" fill="currentColor"/>
    <text writing-mode="lr-tb" text-anchor="middle" alignment-baseline="middle" x="50.0" y="42.98445959957674" font-size="2.5" transform="matrix(1 0 0 -1 0 85.96891919915348)" fill="currentColor" id="ID_2B5">
     <tspan baseline-shift="-40%" font-size="2.5">100</tspan>
    </text>
   </g>
   <g id="ID__#42_D18">
    <line x1="31.4635713571376" y1="14.93434824844368" x2="31.4635713571376" y2="8.684348248443682" id="ID_689"/>
    <line x1="36.16904989026507" y1="14.93434824844368" x2="36.16904989026507" y2="8.684348248443682" id="ID_68A"/>
    <line x1="28.46357135713761" y1="9.934348248443683" x2="25.46357135713761" y2="9.934348248443683" id="ID_68B"/>
    <line x1="39.16904989026507" y1="9.934348248443683" x2="42.16904989026504" y2="9.934348248443683" id="ID_68C"/>
    <line x1="31.4635713571376" y1="9.934348248443683" x2="36.16904989026507" y2="9.934348248443683" id="ID_68D"/>
    <polygon points="28.46357135713761,10.43434824844368 28.46357135713761,9.434348248443683 31.4635713571376,9.934348248443683 31.4635713571376,9.934348248443683 " id="ID_68E" fill="currentColor"/>
    <polygon points="39.16904989026507,10.43434824844368 39.16904989026507,9.434348248443683 36.16904989026507,9.934348248443683 36.16904989026507,9.934348248443683 " id="ID_68F" fill="currentColor"/>
    <text writing-mode="lr-tb" text-anchor="middle" alignment-baseline="middle" x="33.81631062370133" y="11.82981209564696" font-size="2.5" transform="matrix(1 0 0 -1 0 23.65962419129392)" fill="currentColor" id="ID_690">
     <tspan baseline-shift="-40%" font-style="italic" font-family="Arial" font-size="2.5"/>
     <tspan baseline-shift="-40%" font-style="italic" font-family="Arial" font-size="2.5">d</tspan>
    </text>
   </g>
   <g id="ID__#42_D17">
    <line x1="77.22251674633206" y1="60.979410250959" x2="77.22251674633206" y2="54.729410250959" id="ID_584"/>
    <line x1="100.9509481595951" y1="60.979410250959" x2="100.9509481595951" y2="54.729410250959" id="ID_585"/>
    <line x1="80.22251674633208" y1="55.979410250959" x2="97.95094815959509" y2="55.979410250959" id="ID_586"/>
    <polygon points="80.22251674633208,56.47941025095899 80.22251674633208,55.47941025095898 77.22251674633206,55.979410250959 77.22251674633206,55.979410250959 " id="ID_587" fill="currentColor"/>
    <polygon points="97.95094815959509,56.47941025095899 97.95094815959509,55.47941025095898 100.9509481595951,55.979410250959 100.9509481595951,55.979410250959 " id="ID_588" fill="currentColor"/>
    <text writing-mode="lr-tb" text-anchor="middle" alignment-baseline="middle" x="89.08673245296362" y="57.854410250959" font-size="2.5" transform="matrix(1 0 0 -1 0 115.708820501918)" fill="currentColor" id="ID_589">
     <tspan baseline-shift="-40%" font-style="italic" font-family="Arial" font-size="2.5"/>
     <tspan baseline-shift="-40%" font-style="italic" font-family="Arial" font-size="2.5">D</tspan>
    </text>
   </g>
   <g id="ID__#42_D16">
    <line x1="53.49408533306904" y1="60.979410250959" x2="53.49408533306904" y2="54.729410250959" id="ID_57B"/>
    <line x1="77.22251674633206" y1="60.979410250959" x2="77.22251674633206" y2="54.729410250959" id="ID_57C"/>
    <line x1="56.49408533306904" y1="55.979410250959" x2="74.22251674633208" y2="55.979410250959" id="ID_57D"/>
    <polygon points="56.49408533306904,56.47941025095899 56.49408533306904,55.47941025095898 53.49408533306904,55.979410250959 53.49408533306904,55.979410250959 " id="ID_57E" fill="currentColor"/>
    <polygon points="74.22251674633208,56.47941025095899 74.22251674633208,55.47941025095898 77.22251674633206,55.979410250959 77.22251674633206,55.979410250959 " id="ID_57F" fill="currentColor"/>
    <text writing-mode="lr-tb" text-anchor="middle" alignment-baseline="middle" x="65.35830103970056" y="57.854410250959" font-size="2.5" transform="matrix(1 0 0 -1 0 115.708820501918)" fill="currentColor" id="ID_580">
     <tspan baseline-shift="-40%" font-style="italic" font-family="Arial" font-size="2.5"/>
     <tspan baseline-shift="-40%" font-style="italic" font-family="Arial" font-size="2.5">D</tspan>
    </text>
   </g>
   <g id="ID__#42_D15">
    <line x1="98.59820889303136" y1="67.51257057096188" x2="98.59820889303136" y2="61.2625705709619" id="ID_570"/>
    <line x1="103.3036874261588" y1="67.51257057096188" x2="103.3036874261588" y2="61.2625705709619" id="ID_571"/>
    <line x1="95.59820889303138" y1="62.5125705709619" x2="92.59820889303137" y2="62.5125705709619" id="ID_572"/>
    <line x1="106.3036874261588" y1="62.5125705709619" x2="109.3036874261588" y2="62.5125705709619" id="ID_573"/>
    <line x1="98.59820889303136" y1="62.5125705709619" x2="103.3036874261588" y2="62.5125705709619" id="ID_574"/>
    <polygon points="95.59820889303138,63.0125705709619 95.59820889303138,62.0125705709619 98.59820889303136,62.5125705709619 98.59820889303136,62.5125705709619 " id="ID_575" fill="currentColor"/>
    <polygon points="106.3036874261588,63.0125705709619 106.3036874261588,62.0125705709619 103.3036874261588,62.5125705709619 103.3036874261588,62.5125705709619 " id="ID_576" fill="currentColor"/>
    <text writing-mode="lr-tb" text-anchor="middle" alignment-baseline="middle" x="100.9509481595951" y="64.40803441816519" font-size="2.5" transform="matrix(1 0 0 -1 0 128.81606883633037)" fill="currentColor" id="ID_577">
     <tspan baseline-shift="-40%" font-style="italic" font-family="Arial" font-size="2.5"/>
     <tspan baseline-shift="-40%" font-style="italic" font-family="Arial" font-size="2.5">d</tspan>
    </text>
   </g>
   <g id="ID__#42_D14">
    <line x1="74.86977747976835" y1="67.51257057096188" x2="74.86977747976835" y2="61.2625705709619" id="ID_565"/>
    <line x1="79.5752560128958" y1="67.51257057096188" x2="79.5752560128958" y2="61.2625705709619" id="ID_566"/>
    <line x1="71.86977747976835" y1="62.5125705709619" x2="68.86977747976835" y2="62.5125705709619" id="ID_567"/>
    <line x1="82.5752560128958" y1="62.5125705709619" x2="85.5752560128958" y2="62.5125705709619" id="ID_568"/>
    <line x1="74.86977747976835" y1="62.5125705709619" x2="79.5752560128958" y2="62.5125705709619" id="ID_569"/>
    <polygon points="71.86977747976835,63.0125705709619 71.86977747976835,62.0125705709619 74.86977747976835,62.5125705709619 74.86977747976835,62.5125705709619 " id="ID_56A" fill="currentColor"/>
    <polygon points="82.5752560128958,63.0125705709619 82.5752560128958,62.0125705709619 79.5752560128958,62.5125705709619 79.5752560128958,62.5125705709619 " id="ID_56B" fill="currentColor"/>
    <text writing-mode="lr-tb" text-anchor="middle" alignment-baseline="middle" x="77.22251674633206" y="64.40803441816519" font-size="2.5" transform="matrix(1 0 0 -1 0 128.81606883633037)" fill="currentColor" id="ID_56C">
     <tspan baseline-shift="-40%" font-style="italic" font-family="Arial" font-size="2.5"/>
     <tspan baseline-shift="-40%" font-style="italic" font-family="Arial" font-size="2.5">d</tspan>
    </text>
   </g>
   <g id="ID__#42_D13">
    <line x1="51.14134606650533" y1="67.51257057096188" x2="51.14134606650533" y2="61.2625705709619" id="ID_55A"/>
    <line x1="55.84682459963278" y1="67.51257057096188" x2="55.84682459963278" y2="61.2625705709619" id="ID_55B"/>
    <line x1="48.14134606650533" y1="62.5125705709619" x2="45.14134606650531" y2="62.5125705709619" id="ID_55C"/>
    <line x1="58.84682459963279" y1="62.5125705709619" x2="61.84682459963279" y2="62.5125705709619" id="ID_55D"/>
    <line x1="51.14134606650533" y1="62.5125705709619" x2="55.84682459963278" y2="62.5125705709619" id="ID_55E"/>
    <polygon points="48.14134606650533,63.0125705709619 48.14134606650533,62.0125705709619 51.14134606650533,62.5125705709619 51.14134606650533,62.5125705709619 " id="ID_55F" fill="currentColor"/>
    <polygon points="58.84682459963279,63.0125705709619 58.84682459963279,62.0125705709619 55.84682459963278,62.5125705709619 55.84682459963278,62.5125705709619 " id="ID_560" fill="currentColor"/>
    <text writing-mode="lr-tb" text-anchor="middle" alignment-baseline="middle" x="53.49408533306906" y="64.40803441816519" font-size="2.5" transform="matrix(1 0 0 -1 0 128.81606883633037)" fill="currentColor" id="ID_561">
     <tspan baseline-shift="-40%" font-style="italic" font-family="Arial" font-size="2.5"/>
     <tspan baseline-shift="-40%" font-style="italic" font-family="Arial" font-size="2.5">d</tspan>
    </text>
   </g>
   <g id="ID__#42_D12">
    <line x1="57.54474203696435" y1="8.401187928440754" x2="57.54474203696435" y2="2.151187928440755" id="ID_4C8"/>
    <line x1="81.27317345022738" y1="8.401187928440754" x2="81.27317345022738" y2="2.151187928440755" id="ID_4C9"/>
    <line x1="60.54474203696436" y1="3.401187928440755" x2="78.27317345022738" y2="3.401187928440755" id="ID_4CA"/>
    <polygon points="60.54474203696436,3.901187928440755 60.54474203696436,2.901187928440755 57.54474203696435,3.401187928440755 57.54474203696435,3.401187928440755 " id="ID_4CB" fill="currentColor"/>
    <polygon points="78.27317345022738,3.901187928440755 78.27317345022738,2.901187928440755 81.27317345022738,3.401187928440755 81.27317345022738,3.401187928440755 " id="ID_4CC" fill="currentColor"/>
    <text writing-mode="lr-tb" text-anchor="middle" alignment-baseline="middle" x="69.40895774359586" y="5.276187928440753" font-size="2.5" transform="matrix(1 0 0 -1 0 10.552375856881506)" fill="currentColor" id="ID_4CD">
     <tspan baseline-shift="-40%" font-style="italic" font-family="Arial" font-size="2.5"/>
     <tspan baseline-shift="-40%" font-style="italic" font-family="Arial" font-size="2.5">D</tspan>
    </text>
   </g>
   <g id="ID__#42_Paper_Space0"/>
   <g id="ID__#42_D11">
    <line x1="33.81631062370133" y1="8.401187928440754" x2="33.81631062370133" y2="2.151187928440755" id="ID_4BC"/>
    <line x1="57.54474203696435" y1="8.401187928440754" x2="57.54474203696435" y2="2.151187928440755" id="ID_4BD"/>
    <line x1="36.81631062370133" y1="3.401187928440755" x2="54.54474203696435" y2="3.401187928440755" id="ID_4BE"/>
    <polygon points="36.81631062370133,3.901187928440755 36.81631062370133,2.901187928440755 33.81631062370133,3.401187928440755 33.81631062370133,3.401187928440755 " id="ID_4BF" fill="currentColor"/>
    <polygon points="54.54474203696435,3.901187928440755 54.54474203696435,2.901187928440755 57.54474203696435,3.401187928440755 57.54474203696435,3.401187928440755 " id="ID_4C0" fill="currentColor"/>
    <text writing-mode="lr-tb" text-anchor="middle" alignment-baseline="middle" x="45.68052633033284" y="5.276187928440753" font-size="2.5" transform="matrix(1 0 0 -1 0 10.552375856881506)" fill="currentColor" id="ID_4C1">
     <tspan baseline-shift="-40%" font-style="italic" font-family="Arial" font-size="2.5"/>
     <tspan baseline-shift="-40%" font-style="italic" font-family="Arial" font-size="2.5">D</tspan>
    </text>
   </g>
   <g id="ID__#42_D10">
    <line x1="78.92043418366363" y1="14.93434824844368" x2="78.92043418366363" y2="8.684348248443682" id="ID_4AE"/>
    <line x1="83.6259127167911" y1="14.93434824844368" x2="83.6259127167911" y2="8.684348248443682" id="ID_4AF"/>
    <line x1="75.92043418366363" y1="9.934348248443683" x2="72.92043418366363" y2="9.934348248443683" id="ID_4B0"/>
    <line x1="86.6259127167911" y1="9.934348248443683" x2="89.62591271679109" y2="9.934348248443683" id="ID_4B1"/>
    <line x1="78.92043418366363" y1="9.934348248443683" x2="83.6259127167911" y2="9.934348248443683" id="ID_4B2"/>
    <polygon points="75.92043418366363,10.43434824844368 75.92043418366363,9.434348248443683 78.92043418366363,9.934348248443683 78.92043418366363,9.934348248443683 " id="ID_4B3" fill="currentColor"/>
    <polygon points="86.6259127167911,10.43434824844368 86.6259127167911,9.434348248443683 83.6259127167911,9.934348248443683 83.6259127167911,9.934348248443683 " id="ID_4B4" fill="currentColor"/>
    <text writing-mode="lr-tb" text-anchor="middle" alignment-baseline="middle" x="81.27317345022738" y="11.82981209564696" font-size="2.5" transform="matrix(1 0 0 -1 0 23.65962419129392)" fill="currentColor" id="ID_4B5">
     <tspan baseline-shift="-40%" font-style="italic" font-family="Arial" font-size="2.5"/>
     <tspan baseline-shift="-40%" font-style="italic" font-family="Arial" font-size="2.5">d</tspan>
    </text>
   </g>
   <g id="ID__#42_D29">
    <line x1="68.8974813035281" y1="12.77355609794583" x2="68.8974813035281" y2="6.523556097945828" id="ID_86E"/>
    <line x1="35.96357135713761" y1="12.77355609794583" x2="35.96357135713761" y2="6.523556097945828" id="ID_86F"/>
    <line x1="65.8974813035281" y1="7.773556097945828" x2="38.96357135713761" y2="7.773556097945828" id="ID_870"/>
    <polygon points="65.8974813035281,8.273556097945828 65.8974813035281,7.273556097945828 68.8974813035281,7.773556097945828 68.8974813035281,7.773556097945828 " id="ID_871" fill="currentColor"/>
    <polygon points="38.96357135713761,8.273556097945828 38.96357135713761,7.273556097945828 35.96357135713761,7.773556097945828 35.96357135713761,7.773556097945828 " id="ID_872" fill="currentColor"/>
    <text writing-mode="lr-tb" text-anchor="middle" alignment-baseline="middle" x="52.43052633033285" y="9.669019945149103" font-size="2.5" transform="matrix(1 0 0 -1 0 19.338039890298205)" fill="currentColor" id="ID_873">
     <tspan baseline-shift="-40%" font-style="italic" font-family="Arial" font-size="2.5"/>
     <tspan baseline-shift="-40%" font-style="italic" font-family="Arial" font-size="2.5">d</tspan>
    </text>
   </g>
   <g id="ID__#42_D28">
    <line x1="182.5943001341276" y1="8.401187928440756" x2="182.5943001341276" y2="2.151187928440755" id="ID_793"/>
    <line x1="211.0282100805181" y1="8.401187928440756" x2="211.0282100805181" y2="2.151187928440755" id="ID_794"/>
    <line x1="185.5943001341276" y1="3.401187928440755" x2="208.0282100805181" y2="3.401187928440755" id="ID_795"/>
    <polygon points="185.5943001341276,3.901187928440755 185.5943001341276,2.901187928440755 182.5943001341276,3.401187928440755 182.5943001341276,3.401187928440755 " id="ID_796" fill="currentColor"/>
    <polygon points="208.0282100805181,3.901187928440755 208.0282100805181,2.901187928440755 211.0282100805181,3.401187928440755 211.0282100805181,3.401187928440755 " id="ID_797" fill="currentColor"/>
    <text writing-mode="lr-tb" text-anchor="middle" alignment-baseline="middle" x="196.8112551073229" y="5.276187928440755" font-size="2.5" transform="matrix(1 0 0 -1 0 10.55237585688151)" fill="currentColor" id="ID_798">
     <tspan baseline-shift="-40%" font-style="italic" font-family="Arial" font-size="2.5"/>
     <tspan baseline-shift="-40%" font-style="italic" font-family="Arial" font-size="2.5">D</tspan>
    </text>
   </g>
   <g id="ID__#42_D27">
    <line x1="158.8658687208646" y1="8.401187928440756" x2="158.8658687208646" y2="2.151187928440755" id="ID_78A"/>
    <line x1="182.5943001341276" y1="8.401187928440756" x2="182.5943001341276" y2="2.151187928440755" id="ID_78B"/>
    <line x1="161.8658687208646" y1="3.401187928440755" x2="179.5943001341276" y2="3.401187928440755" id="ID_78C"/>
    <polygon points="161.8658687208646,3.901187928440755 161.8658687208646,2.901187928440755 158.8658687208646,3.401187928440755 158.8658687208646,3.401187928440755 " id="ID_78D" fill="currentColor"/>
    <polygon points="179.5943001341276,3.901187928440755 179.5943001341276,2.901187928440755 182.5943001341276,3.401187928440755 182.5943001341276,3.401187928440755 " id="ID_78E" fill="currentColor"/>
    <text writing-mode="lr-tb" text-anchor="middle" alignment-baseline="middle" x="170.7300844274961" y="5.276187928440755" font-size="2.5" transform="matrix(1 0 0 -1 0 10.55237585688151)" fill="currentColor" id="ID_78F">
     <tspan baseline-shift="-40%" font-style="italic" font-family="Arial" font-size="2.5"/>
     <tspan baseline-shift="-40%" font-style="italic" font-family="Arial" font-size="2.5">D</tspan>
    </text>
   </g>
   <g id="ID__#42_D26">
    <line x1="208.6754708139544" y1="14.93434824844368" x2="208.6754708139544" y2="8.684348248443683" id="ID_77F"/>
    <line x1="213.3809493470819" y1="14.93434824844368" x2="213.3809493470819" y2="8.684348248443683" id="ID_780"/>
    <line x1="205.6754708139544" y1="9.934348248443683" x2="202.6754708139544" y2="9.934348248443683" id="ID_781"/>
    <line x1="216.3809493470818" y1="9.934348248443683" x2="219.3809493470819" y2="9.934348248443683" id="ID_782"/>
    <line x1="208.6754708139544" y1="9.934348248443683" x2="213.3809493470819" y2="9.934348248443683" id="ID_783"/>
    <polygon points="205.6754708139544,10.43434824844368 205.6754708139544,9.434348248443683 208.6754708139544,9.934348248443683 208.6754708139544,9.934348248443683 " id="ID_784" fill="currentColor"/>
    <polygon points="216.3809493470818,10.43434824844368 216.3809493470818,9.434348248443683 213.3809493470819,9.934348248443683 213.3809493470819,9.934348248443683 " id="ID_785" fill="currentColor"/>
    <text writing-mode="lr-tb" text-anchor="middle" alignment-baseline="middle" x="211.0282100805181" y="11.82981209564696" font-size="2.5" transform="matrix(1 0 0 -1 0 23.65962419129392)" fill="currentColor" id="ID_786">
     <tspan baseline-shift="-40%" font-style="italic" font-family="Arial" font-size="2.5"/>
     <tspan baseline-shift="-40%" font-style="italic" font-family="Arial" font-size="2.5">d</tspan>
    </text>
   </g>
   <g id="ID__#42_D25">
    <line x1="180.2415608675639" y1="14.93434824844368" x2="180.2415608675639" y2="8.684348248443683" id="ID_774"/>
    <line x1="184.9470394006914" y1="14.93434824844368" x2="184.9470394006914" y2="8.684348248443683" id="ID_775"/>
    <line x1="177.2415608675639" y1="9.934348248443683" x2="174.2415608675639" y2="9.934348248443683" id="ID_776"/>
    <line x1="187.9470394006913" y1="9.934348248443683" x2="190.9470394006913" y2="9.934348248443683" id="ID_777"/>
    <line x1="180.2415608675639" y1="9.934348248443683" x2="184.9470394006914" y2="9.934348248443683" id="ID_778"/>
    <polygon points="177.2415608675639,10.43434824844368 177.2415608675639,9.434348248443683 180.2415608675639,9.934348248443683 180.2415608675639,9.934348248443683 " id="ID_779" fill="currentColor"/>
    <polygon points="187.9470394006913,10.43434824844368 187.9470394006913,9.434348248443683 184.9470394006914,9.934348248443683 184.9470394006914,9.934348248443683 " id="ID_77A" fill="currentColor"/>
    <text writing-mode="lr-tb" text-anchor="middle" alignment-baseline="middle" x="182.5943001341276" y="11.82981209564696" font-size="2.5" transform="matrix(1 0 0 -1 0 23.65962419129392)" fill="currentColor" id="ID_77B">
     <tspan baseline-shift="-40%" font-style="italic" font-family="Arial" font-size="2.5"/>
     <tspan baseline-shift="-40%" font-style="italic" font-family="Arial" font-size="2.5">d</tspan>
    </text>
   </g>
   <g id="ID__#42_Model_Space"/>
   <g id="ID__#42_D24">
    <line x1="35.96357135713761" y1="12.77355609794583" x2="35.96357135713761" y2="6.523556097945828" id="ID_865"/>
    <line x1="2.081083737589039" y1="12.77355609794583" x2="2.081083737589039" y2="6.523556097945828" id="ID_866"/>
    <line x1="32.96357135713761" y1="7.773556097945828" x2="5.08108373758904" y2="7.773556097945828" id="ID_867"/>
    <polygon points="32.96357135713761,8.273556097945828 32.96357135713761,7.273556097945828 35.96357135713761,7.773556097945828 35.96357135713761,7.773556097945828 " id="ID_868" fill="currentColor"/>
    <polygon points="5.08108373758904,8.273556097945828 5.08108373758904,7.273556097945828 2.081083737589039,7.773556097945828 2.081083737589039,7.773556097945828 " id="ID_869" fill="currentColor"/>
    <text writing-mode="lr-tb" text-anchor="middle" alignment-baseline="middle" x="19.02232754736332" y="9.669019945149103" font-size="2.5" transform="matrix(1 0 0 -1 0 19.338039890298205)" fill="currentColor" id="ID_86A">
     <tspan baseline-shift="-40%" font-style="italic" font-family="Arial" font-size="2.5"/>
     <tspan baseline-shift="-40%" font-style="italic" font-family="Arial" font-size="2.5">d</tspan>
    </text>
   </g>
   <g id="ID__#42_D22">
    <line x1="57.54474203696435" y1="8.401187928440756" x2="57.54474203696435" y2="2.151187928440755" id="ID_6BF"/>
    <line x1="85.97865198335484" y1="8.401187928440756" x2="85.97865198335484" y2="2.151187928440755" id="ID_6C0"/>
    <line x1="60.54474203696435" y1="3.401187928440755" x2="82.97865198335484" y2="3.401187928440755" id="ID_6C1"/>
    <polygon points="60.54474203696435,3.901187928440755 60.54474203696435,2.901187928440755 57.54474203696435,3.401187928440755 57.54474203696435,3.401187928440755 " id="ID_6C2" fill="currentColor"/>
    <polygon points="82.97865198335484,3.901187928440755 82.97865198335484,2.901187928440755 85.97865198335484,3.401187928440755 85.97865198335484,3.401187928440755 " id="ID_6C3" fill="currentColor"/>
    <text writing-mode="lr-tb" text-anchor="middle" alignment-baseline="middle" x="71.7616970101596" y="5.276187928440755" font-size="2.5" transform="matrix(1 0 0 -1 0 10.55237585688151)" fill="currentColor" id="ID_6C4">
     <tspan baseline-shift="-40%" font-style="italic" font-family="Arial" font-size="2.5"/>
     <tspan baseline-shift="-40%" font-style="italic" font-family="Arial" font-size="2.5">D</tspan>
    </text>
   </g>
   <g id="ID__#42_D21">
    <line x1="33.81631062370133" y1="8.401187928440754" x2="33.81631062370133" y2="2.151187928440755" id="ID_6B3"/>
    <line x1="57.54474203696435" y1="8.401187928440754" x2="57.54474203696435" y2="2.151187928440755" id="ID_6B4"/>
    <line x1="36.81631062370133" y1="3.401187928440755" x2="54.54474203696435" y2="3.401187928440755" id="ID_6B5"/>
    <polygon points="36.81631062370133,3.901187928440755 36.81631062370133,2.901187928440755 33.81631062370133,3.401187928440755 33.81631062370133,3.401187928440755 " id="ID_6B6" fill="currentColor"/>
    <polygon points="54.54474203696435,3.901187928440755 54.54474203696435,2.901187928440755 57.54474203696435,3.401187928440755 57.54474203696435,3.401187928440755 " id="ID_6B7" fill="currentColor"/>
    <text writing-mode="lr-tb" text-anchor="middle" alignment-baseline="middle" x="45.68052633033284" y="5.276187928440754" font-size="2.5" transform="matrix(1 0 0 -1 0 10.552375856881508)" fill="currentColor" id="ID_6B8">
     <tspan baseline-shift="-40%" font-style="italic" font-family="Arial" font-size="2.5"/>
     <tspan baseline-shift="-40%" font-style="italic" font-family="Arial" font-size="2.5">D</tspan>
    </text>
   </g>
   <g id="ID__#42_D20">
    <line x1="83.6259127167911" y1="14.93434824844368" x2="83.6259127167911" y2="8.684348248443683" id="ID_6A5"/>
    <line x1="88.33139124991857" y1="14.93434824844368" x2="88.33139124991857" y2="8.684348248443683" id="ID_6A6"/>
    <line x1="80.6259127167911" y1="9.934348248443683" x2="77.6259127167911" y2="9.934348248443683" id="ID_6A7"/>
    <line x1="91.33139124991858" y1="9.934348248443683" x2="94.3313912499186" y2="9.934348248443683" id="ID_6A8"/>
    <line x1="83.6259127167911" y1="9.934348248443683" x2="88.33139124991857" y2="9.934348248443683" id="ID_6A9"/>
    <polygon points="80.6259127167911,10.43434824844368 80.6259127167911,9.434348248443683 83.6259127167911,9.934348248443683 83.6259127167911,9.934348248443683 " id="ID_6AA" fill="currentColor"/>
    <polygon points="91.33139124991858,10.43434824844368 91.33139124991858,9.434348248443683 88.33139124991857,9.934348248443683 88.33139124991857,9.934348248443683 " id="ID_6AB" fill="currentColor"/>
    <text writing-mode="lr-tb" text-anchor="middle" alignment-baseline="middle" x="85.97865198335484" y="11.82981209564696" font-size="2.5" transform="matrix(1 0 0 -1 0 23.65962419129392)" fill="currentColor" id="ID_6AC">
     <tspan baseline-shift="-40%" font-style="italic" font-family="Arial" font-size="2.5"/>
     <tspan baseline-shift="-40%" font-style="italic" font-family="Arial" font-size="2.5">d</tspan>
    </text>
   </g>
   <g id="ID__#42_Paper_Space"/>
  </defs>
  <g id="draft" transform="matrix(1 0 0 -1 0 0)" stroke-width="0.018461207375297495">
   <g id="Defpoints" color="rgb(0,0,0)" stroke="currentColor" fill="none" stroke-width="0.018461207375297495"/>
   <g id="boundingBox" color="rgb(0,0,0)" stroke="currentColor" fill="none" stroke-width="0.00018461207375297495">
    <path d="M 100.2063390806125 47.48331992176747 L 0 47.48331992176747 L 0 0 L 100.2063390806125 0  z" id="ID_706"/>
   </g>
   <g id="strzalki" color="rgb(0,0,0)" stroke="currentColor" fill="none" stroke-width="0.18461207375297495">
    <path d="M 2.08108373758904 20.22214640678162 L 2.08108373758904 23.26550113762342 " id="ID_717"/>
    <path d="M 35.96357135713761 20.22214640678162 L 35.96357135713761 23.26550113762342 " id="ID_719"/>
    <path d="M 68.8974813035281 20.22214640678162 L 68.8974813035281 23.26550113762342 " id="ID_71F"/>
    <path d="M 98.27996892307662 20.22214640678162 L 98.27996892307662 23.26550113762342 " id="ID_721"/>
    <polygon points="1.247750404255711,20.22214640678162 2.08108373758904,18.72771753618905 2.914417070922368,20.22214640678162 2.914417070922368,20.22214640678162 " id="ID_716" fill="currentColor"/>
    <polygon points="35.13023802380427,20.22214640678162 35.96357135713761,18.72771753618905 36.79690469047093,20.22214640678162 36.79690469047093,20.22214640678162 " id="ID_718" fill="currentColor"/>
    <polygon points="68.06414797019475,20.22214640678162 68.8974813035281,18.72771753618905 69.73081463686141,20.22214640678162 69.73081463686141,20.22214640678162 " id="ID_71E" fill="currentColor"/>
    <polygon points="99.11330225640995,20.22214640678162 98.27996892307662,18.72771753618905 97.4466355897433,20.22214640678162 97.4466355897433,20.22214640678162 " id="ID_720" fill="currentColor"/>
   </g>
   <g id="Opis" color="rgb(0,0,0)" stroke="currentColor" fill="none" stroke-width="0.018461207375297495"/>
   <g id="ID_0" color="rgb(147,147,147)" stroke="currentColor" fill="none" stroke-width="0.10461207375297495">
    <circle cx="2.08108373758904" cy="16.52774531959627" r="1.658683030370298" id="ID_70A"/>
    <circle cx="35.96357135713761" cy="16.52774531959627" r="1.658683030370298" id="ID_70B"/>
    <circle cx="68.8974813035281" cy="16.52774531959627" r="1.658683030370298" id="ID_70E"/>
    <circle cx="98.27996892307662" cy="16.52774531959627" r="1.658683030370298" id="ID_70F"/>
    <line x1="0.4009364590938276" y1="28.25421255213115" x2="99.92900418822477" y2="28.25421255213115" id="ID_7FD"/>
    <line x1="99.92900418822477" y1="28.25421255213115" x2="99.92900418822477" y2="18.32771753618905" id="ID_7FE"/>
    <line x1="99.92900418822477" y1="18.32771753618905" x2="0.4009364590938276" y2="18.32771753618905" id="ID_7FF"/>
    <line x1="0.4009364590938276" y1="18.32771753618905" x2="0.4009364590938276" y2="28.25421255213115" id="ID_800"/>
   </g>
   <g id="Wymiary" color="rgb(0,0,0)" stroke="currentColor" fill="none" stroke-width="0.018461207375297495">
    <g transform="translate(0.0 0.0)" id="ID_2B9" stroke-width="0.018461207375297495">
     <use xmlns:xlink="http://www.w3.org/1999/xlink" xlink:href="#ID__#42_D2"/>
    </g>
    <g transform="translate(0.0 0.0)" id="ID_6FF" stroke-width="0.018461207375297495">
     <use xmlns:xlink="http://www.w3.org/1999/xlink" xlink:href="#ID__#42_D24"/>
    </g>
    <g transform="translate(0.0 0.0)" id="ID_7C1" stroke-width="0.018461207375297495">
     <use xmlns:xlink="http://www.w3.org/1999/xlink" xlink:href="#ID__#42_D29"/>
    </g>
    <g transform="translate(0.0 0.0)" id="ID_7D7" stroke-width="0.018461207375297495">
     <use xmlns:xlink="http://www.w3.org/1999/xlink" xlink:href="#ID__#42_D30"/>
    </g>
   </g>
  </g>
 </svg>