<?xml version="1.0" encoding="UTF-8" ?>
 <svg viewBox="0 -47.48331992176747  100.2063390806125 47.48331992176747" xmlns="http://www.w3.org/2000/svg" version="1.0" overflow="visible">
  <defs>
   <g id="ID__#42_Model_Space"/>
   <g id="ID__#42_D5">
    <line x1="57.54474203696435" y1="8.401187928440756" x2="57.54474203696435" y2="2.151187928440755" id="ID_7BF"/>
    <line x1="85.97865198335484" y1="8.401187928440756" x2="85.97865198335484" y2="2.151187928440755" id="ID_7C0"/>
    <line x1="60.54474203696435" y1="3.401187928440755" x2="82.97865198335484" y2="3.401187928440755" id="ID_7C1"/>
    <polygon points="60.54474203696435,3.901187928440755 60.54474203696435,2.901187928440755 57.54474203696435,3.401187928440755 57.54474203696435,3.401187928440755 " id="ID_7C2" fill="currentColor"/>
    <polygon points="82.97865198335484,3.901187928440755 82.97865198335484,2.901187928440755 85.97865198335484,3.401187928440755 85.97865198335484,3.401187928440755 " id="ID_7C3" fill="currentColor"/>
    <text writing-mode="lr-tb" text-anchor="middle" alignment-baseline="middle" x="71.7616970101596" y="5.276187928440755" font-size="2.5" transform="matrix(1 0 0 -1 0 10.55237585688151)" fill="currentColor" id="ID_7C4">
     <tspan baseline-shift="-40%" font-style="italic" font-family="Arial" font-size="2.5"/>
     <tspan baseline-shift="-40%" font-style="italic" font-family="Arial" font-size="2.5">D</tspan>
    </text>
   </g>
   <g id="ID__#42_D4">
    <line x1="33.81631062370133" y1="8.401187928440754" x2="33.81631062370133" y2="2.151187928440755" id="ID_6E4"/>
    <line x1="57.54474203696435" y1="8.401187928440754" x2="57.54474203696435" y2="2.151187928440755" id="ID_6E5"/>
    <line x1="36.81631062370133" y1="3.401187928440755" x2="54.54474203696435" y2="3.401187928440755" id="ID_6E6"/>
    <polygon points="36.81631062370133,3.901187928440755 36.81631062370133,2.901187928440755 33.81631062370133,3.401187928440755 33.81631062370133,3.401187928440755 " id="ID_6E7" fill="currentColor"/>
    <polygon points="54.54474203696435,3.901187928440755 54.54474203696435,2.901187928440755 57.54474203696435,3.401187928440755 57.54474203696435,3.401187928440755 " id="ID_6E8" fill="currentColor"/>
    <text writing-mode="lr-tb" text-anchor="middle" alignment-baseline="middle" x="45.68052633033284" y="5.276187928440754" font-size="2.5" transform="matrix(1 0 0 -1 0 10.552375856881508)" fill="currentColor" id="ID_6E9">
     <tspan baseline-shift="-40%" font-style="italic" font-family="Arial" font-size="2.5"/>
     <tspan baseline-shift="-40%" font-style="italic" font-family="Arial" font-size="2.5">D</tspan>
    </text>
   </g>
   <g id="ID__#42_D3">
    <line x1="83.6259127167911" y1="14.93434824844368" x2="83.6259127167911" y2="8.684348248443683" id="ID_7B4"/>
    <line x1="88.33139124991857" y1="14.93434824844368" x2="88.33139124991857" y2="8.684348248443683" id="ID_7B5"/>
    <line x1="80.6259127167911" y1="9.934348248443683" x2="77.6259127167911" y2="9.934348248443683" id="ID_7B6"/>
    <line x1="91.33139124991858" y1="9.934348248443683" x2="94.3313912499186" y2="9.934348248443683" id="ID_7B7"/>
    <line x1="83.6259127167911" y1="9.934348248443683" x2="88.33139124991857" y2="9.934348248443683" id="ID_7B8"/>
    <polygon points="80.6259127167911,10.43434824844368 80.6259127167911,9.434348248443683 83.6259127167911,9.934348248443683 83.6259127167911,9.934348248443683 " id="ID_7B9" fill="currentColor"/>
    <polygon points="91.33139124991858,10.43434824844368 91.33139124991858,9.434348248443683 88.33139124991857,9.934348248443683 88.33139124991857,9.934348248443683 " id="ID_7BA" fill="currentColor"/>
    <text writing-mode="lr-tb" text-anchor="middle" alignment-baseline="middle" x="85.97865198335484" y="11.82981209564696" font-size="2.5" transform="matrix(1 0 0 -1 0 23.65962419129392)" fill="currentColor" id="ID_7BB">
     <tspan baseline-shift="-40%" font-style="italic" font-family="Arial" font-size="2.5"/>
     <tspan baseline-shift="-40%" font-style="italic" font-family="Arial" font-size="2.5">d</tspan>
    </text>
   </g>
   <g id="ID__#42_D2">
    <line x1="55.19200277040061" y1="14.93434824844368" x2="55.19200277040061" y2="8.684348248443682" id="ID_6F8"/>
    <line x1="59.89748130352808" y1="14.93434824844368" x2="59.89748130352808" y2="8.684348248443682" id="ID_6F9"/>
    <line x1="52.19200277040061" y1="9.934348248443683" x2="49.19200277040062" y2="9.934348248443683" id="ID_6FA"/>
    <line x1="62.89748130352807" y1="9.934348248443683" x2="65.89748130352808" y2="9.934348248443683" id="ID_6FB"/>
    <line x1="55.19200277040061" y1="9.934348248443683" x2="59.89748130352808" y2="9.934348248443683" id="ID_6FC"/>
    <polygon points="52.19200277040061,10.43434824844368 52.19200277040061,9.434348248443683 55.19200277040061,9.934348248443683 55.19200277040061,9.934348248443683 " id="ID_6FD" fill="currentColor"/>
    <polygon points="62.89748130352807,10.43434824844368 62.89748130352807,9.434348248443683 59.89748130352808,9.934348248443683 59.89748130352808,9.934348248443683 " id="ID_6FE" fill="currentColor"/>
    <text writing-mode="lr-tb" text-anchor="middle" alignment-baseline="middle" x="57.54474203696434" y="11.82981209564696" font-size="2.5" transform="matrix(1 0 0 -1 0 23.65962419129392)" fill="currentColor" id="ID_6FF">
     <tspan baseline-shift="-40%" font-style="italic" font-family="Arial" font-size="2.5"/>
     <tspan baseline-shift="-40%" font-style="italic" font-family="Arial" font-size="2.5">d</tspan>
    </text>
   </g>
   <g id="ID__#42_D1">
    <line x1="31.4635713571376" y1="14.93434824844368" x2="31.4635713571376" y2="8.684348248443682" id="ID_703"/>
    <line x1="36.16904989026507" y1="14.93434824844368" x2="36.16904989026507" y2="8.684348248443682" id="ID_704"/>
    <line x1="28.46357135713761" y1="9.934348248443683" x2="25.46357135713761" y2="9.934348248443683" id="ID_705"/>
    <line x1="39.16904989026507" y1="9.934348248443683" x2="42.16904989026504" y2="9.934348248443683" id="ID_706"/>
    <line x1="31.4635713571376" y1="9.934348248443683" x2="36.16904989026507" y2="9.934348248443683" id="ID_707"/>
    <polygon points="28.46357135713761,10.43434824844368 28.46357135713761,9.434348248443683 31.4635713571376,9.934348248443683 31.4635713571376,9.934348248443683 " id="ID_708" fill="currentColor"/>
    <polygon points="39.16904989026507,10.43434824844368 39.16904989026507,9.434348248443683 36.16904989026507,9.934348248443683 36.16904989026507,9.934348248443683 " id="ID_709" fill="currentColor"/>
    <text writing-mode="lr-tb" text-anchor="middle" alignment-baseline="middle" x="33.81631062370133" y="11.82981209564696" font-size="2.5" transform="matrix(1 0 0 -1 0 23.65962419129392)" fill="currentColor" id="ID_70A">
     <tspan baseline-shift="-40%" font-style="italic" font-family="Arial" font-size="2.5"/>
     <tspan baseline-shift="-40%" font-style="italic" font-family="Arial" font-size="2.5">d</tspan>
    </text>
   </g>
   <g id="ID__#42_Paper_Space0"/>
   <g id="ID__#42_Paper_Space"/>
  </defs>
  <g id="draft" transform="matrix(1 0 0 -1 0 0)" stroke-width="0.018461207375297495">
   <g id="Defpoints" color="rgb(0,0,0)" stroke="currentColor" fill="none" stroke-width="0.018461207375297495"/>
   <g id="Opis" color="rgb(0,0,0)" stroke="currentColor" fill="none" stroke-width="0.018461207375297495"/>
   <g id="boundingBox" color="rgb(0,0,0)" stroke="currentColor" fill="none" stroke-width="0.00018461207375297495">
    <path d="M 100.2063390806125 47.48331992176747 L 0 47.48331992176747 L 0 0 L 100.2063390806125 0  z" id="ID_66D"/>
   </g>
   <g id="strzalki" color="rgb(0,0,0)" stroke="currentColor" fill="none" stroke-width="0.38461207375297495">
    <path d="M 21.1040366177246 20.22214640678162 L 21.1040366177246 23.26550113762342 " id="ID_4F6"/>
    <path d="M 25.80951515085207 20.22214640678162 L 25.80951515085207 23.26550113762342 " id="ID_767"/>
    <path d="M 6.786562270716501 20.22214640678162 L 6.786562270716501 23.26550113762342 " id="ID_769"/>
    <path d="M 2.08108373758904 20.22214640678162 L 2.08108373758904 23.26550113762342 " id="ID_76B"/>
    <path d="M 31.4635713571376 20.22214640678162 L 31.4635713571376 23.26550113762342 " id="ID_76D"/>
    <path d="M 36.16904989026507 20.22214640678162 L 36.16904989026507 23.26550113762342 " id="ID_76F"/>
    <path d="M 55.19200277040061 20.22214640678162 L 55.19200277040061 23.26550113762342 " id="ID_771"/>
    <path d="M 59.89748130352808 20.22214640678162 L 59.89748130352808 23.26550113762342 " id="ID_773"/>
    <path d="M 88.33139124991857 20.22214640678162 L 88.33139124991857 23.26550113762342 " id="ID_775"/>
    <path d="M 83.6259127167911 20.22214640678162 L 83.6259127167911 23.26550113762342 " id="ID_777"/>
    <polygon points="20.27070328439127,20.22214640678162 21.1040366177246,18.72771753618905 21.93736995105793,20.22214640678162 21.93736995105793,20.22214640678162 " id="ID_4F5" fill="currentColor"/>
    <polygon points="24.97618181751874,20.22214640678162 25.80951515085207,18.72771753618905 26.6428484841854,20.22214640678162 26.6428484841854,20.22214640678162 " id="ID_766" fill="currentColor"/>
    <polygon points="5.953228937383169,20.22214640678162 6.786562270716501,18.72771753618905 7.61989560404983,20.22214640678162 7.61989560404983,20.22214640678162 " id="ID_768" fill="currentColor"/>
    <polygon points="1.247750404255707,20.22214640678162 2.08108373758904,18.72771753618905 2.914417070922368,20.22214640678162 2.914417070922368,20.22214640678162 " id="ID_76A" fill="currentColor"/>
    <polygon points="30.63023802380427,20.22214640678162 31.4635713571376,18.72771753618905 32.29690469047093,20.22214640678162 32.29690469047093,20.22214640678162 " id="ID_76C" fill="currentColor"/>
    <polygon points="35.33571655693173,20.22214640678162 36.16904989026507,18.72771753618905 37.00238322359839,20.22214640678162 37.00238322359839,20.22214640678162 " id="ID_76E" fill="currentColor"/>
    <polygon points="54.35866943706727,20.22214640678162 55.19200277040061,18.72771753618905 56.02533610373394,20.22214640678162 56.02533610373394,20.22214640678162 " id="ID_770" fill="currentColor"/>
    <polygon points="59.06414797019476,20.22214640678162 59.89748130352808,18.72771753618905 60.73081463686141,20.22214640678162 60.73081463686141,20.22214640678162 " id="ID_772" fill="currentColor"/>
    <polygon points="89.16472458325191,20.22214640678162 88.33139124991857,18.72771753618905 87.49805791658525,20.22214640678162 87.49805791658525,20.22214640678162 " id="ID_774" fill="currentColor"/>
    <polygon points="82.79257938345776,20.22214640678162 83.6259127167911,18.72771753618905 84.45924605012443,20.22214640678162 84.45924605012443,20.22214640678162 " id="ID_776" fill="currentColor"/>
   </g>
   <g id="ID_0" color="rgb(147,147,147)" stroke="currentColor" fill="none" stroke-width="0.10461207375297495">
    <path d="M 27.46819818122237 18.32771753618905 L 0.4009364590938276 18.32771753618905 L 0.4009364590938276 28.25421255213115 L 27.46819818122237 28.25421255213115  z" id="ID_765"/>
    <path d="M 29.8048883267673 18.32771753618905 L 56.87215004889584 18.32771753618905 L 56.87215004889584 28.25421255213115 L 29.8048883267673 28.25421255213115  z" id="ID_796"/>
    <path d="M 85.2845957471614 18.32771753618905 L 58.21733402503285 18.32771753618905 L 58.21733402503285 28.25421255213115 L 85.2845957471614 28.25421255213115  z" id="ID_7B3"/>
    <path d="M 100.2063390806125 28.25421255213115 L 86.67270821954828 28.25421255213115 L 86.67270821954828 18.32771753618905 L 100.2063390806125 18.32771753618905 " id="ID_7C9"/>
    <circle cx="21.1040366177246" cy="16.52774531959627" r="1.658683030370298" id="ID_755"/>
    <circle cx="25.80951515085207" cy="16.52774531959627" r="1.658683030370298" id="ID_756"/>
    <circle cx="6.786562270716501" cy="16.52774531959627" r="1.658683030370298" id="ID_757"/>
    <circle cx="2.08108373758904" cy="16.52774531959627" r="1.658683030370298" id="ID_758"/>
    <circle cx="31.4635713571376" cy="16.52774531959627" r="1.658683030370298" id="ID_759"/>
    <circle cx="36.16904989026507" cy="16.52774531959627" r="1.658683030370298" id="ID_75A"/>
    <circle cx="55.19200277040061" cy="16.52774531959627" r="1.658683030370298" id="ID_75B"/>
    <circle cx="59.89748130352808" cy="16.52774531959627" r="1.658683030370298" id="ID_75C"/>
    <circle cx="88.33139124991857" cy="16.52774531959627" r="1.658683030370298" id="ID_75D"/>
    <circle cx="83.6259127167911" cy="16.52774531959627" r="1.658683030370298" id="ID_75E"/>
   </g>
   <g id="Wymiary" color="rgb(0,0,0)" stroke="currentColor" fill="none" stroke-width="0.018461207375297495">
    <polygon points="60.66916673387066,42.78368172469988 60.66916673387066,41.78368172469986 57.66916673387068,42.28368172469987 57.66916673387068,42.28368172469987 " id="ID_5A9" fill="currentColor"/>
    <text writing-mode="lr-tb" text-anchor="middle" alignment-baseline="middle" x="79.81291288727668" y="44.18511419400413" font-size="2.5" transform="matrix(1 0 0 -1 0 88.37022838800826)" fill="currentColor" id="ID_5AB">
     <tspan baseline-shift="-40%" font-style="italic" font-family="Arial" font-size="2.5"/>
     <tspan baseline-shift="-40%" font-style="italic" font-family="Arial" font-size="2.5">N x D</tspan>
    </text>
    <g transform="translate(0.0 0.0)" id="ID_4F4" stroke-width="0.018461207375297495">
     <use xmlns:xlink="http://www.w3.org/1999/xlink" xlink:href="#ID__#42_D1"/>
    </g>
    <g transform="translate(0.0 0.0)" id="ID_50C" stroke-width="0.018461207375297495">
     <use xmlns:xlink="http://www.w3.org/1999/xlink" xlink:href="#ID__#42_D2"/>
    </g>
    <g transform="translate(0.0 0.0)" id="ID_50D" stroke-width="0.018461207375297495">
     <use xmlns:xlink="http://www.w3.org/1999/xlink" xlink:href="#ID__#42_D3"/>
    </g>
    <g transform="translate(0.0 0.0)" id="ID_50E" stroke-width="0.018461207375297495">
     <use xmlns:xlink="http://www.w3.org/1999/xlink" xlink:href="#ID__#42_D4"/>
    </g>
    <g transform="translate(0.0 0.0)" id="ID_587" stroke-width="0.018461207375297495">
     <use xmlns:xlink="http://www.w3.org/1999/xlink" xlink:href="#ID__#42_D5"/>
    </g>
    <line x1="57.66916673387068" y1="37.28368172469987" x2="57.66916673387068" y2="43.53368172469987" id="ID_5A6"/>
    <line x1="60.54474203696436" y1="42.28368172469989" x2="100.2063390806125" y2="42.28368172469989" id="ID_5A8"/>
   </g>
  </g>
 </svg>